<?xml version="1.0" standalone="no"?>
<!DOCTYPE svg PUBLIC "-//W3C//DTD SVG 20010904//EN"
 "http://www.w3.org/TR/2001/REC-SVG-20010904/DTD/svg10.dtd">
<svg version="1.0" xmlns="http://www.w3.org/2000/svg"
 width="700.000000pt" height="700.000000pt" viewBox="0 0 700.000000 700.000000"
 preserveAspectRatio="xMidYMid meet">
<metadata>
Created by potrace 1.11, written by Peter Selinger 2001-2013
</metadata>
<g transform="translate(0.000000,700.000000) scale(0.100000,-0.100000)"
fill="#000000" stroke="none">
<path d="M1969 6915 c-8 -90 14 -182 116 -500 42 -132 105 -330 140 -440 35
-110 109 -344 165 -520 56 -176 112 -354 125 -395 13 -41 56 -176 95 -300 40
-124 83 -259 95 -300 13 -41 40 -124 59 -185 245 -769 233 -723 197 -794 -20
-38 -467 -785 -811 -1354 l-114 -189 -45 7 c-88 14 -107 15 -197 16 -211 1
-415 -110 -538 -295 -32 -49 -83 -158 -93 -200 -15 -66 -18 -101 -18 -191 1
-125 20 -186 109 -350 102 -187 102 -260 -4 -395 -46 -60 -73 -83 -150 -134
-75 -49 -169 -95 -267 -132 -116 -42 -112 -38 -112 -109 l0 -63 46 -7 c184
-27 390 19 545 122 64 42 101 79 250 253 104 122 129 135 304 166 154 26 232
53 314 108 142 95 259 268 291 429 12 62 14 174 4 237 -19 129 -92 263 -207
384 -43 45 -78 85 -78 89 0 12 118 172 287 387 27 35 249 299 305 364 34 39
134 143 222 232 170 170 313 285 345 279 60 -11 190 -121 407 -343 136 -140
174 -173 190 -168 25 8 129 108 159 152 l23 34 -50 92 c-28 51 -122 210 -209
353 -145 240 -157 264 -153 301 3 37 47 185 137 469 20 61 50 155 67 210 18
55 60 190 95 300 35 110 96 301 135 425 40 124 101 317 137 430 36 113 80 252
98 310 19 58 65 204 104 325 116 366 202 637 221 700 19 62 23 90 21 164 -1
62 -19 43 -72 -77 -23 -53 -69 -153 -101 -220 -32 -68 -58 -125 -58 -127 0 -1
-26 -58 -59 -126 -32 -68 -68 -145 -80 -171 -11 -26 -50 -108 -86 -183 -36
-75 -65 -138 -65 -140 0 -1 -26 -58 -59 -126 -55 -116 -75 -159 -171 -364
-143 -306 -182 -389 -215 -460 -21 -44 -64 -136 -97 -205 -33 -69 -76 -159
-95 -200 -20 -41 -78 -163 -130 -270 l-95 -195 -71 145 c-40 80 -84 172 -99
205 -56 125 -167 362 -379 813 -23 48 -56 119 -74 157 -37 80 -92 196 -177
375 -33 69 -87 184 -120 255 -33 72 -82 177 -109 234 -27 57 -49 105 -49 106
0 2 -32 70 -71 152 -148 310 -228 467 -230 448z m1446 -3234 c162 -73 127
-295 -48 -315 -129 -15 -220 117 -163 234 46 96 118 124 211 81z m-1465 -1902
c307 -90 458 -440 309 -718 -91 -171 -263 -274 -455 -272 -175 2 -321 84 -420
237 -106 165 -103 388 7 549 127 184 349 266 559 204z"/>
<path d="M3335 3673 c-65 -13 -105 -49 -122 -114 -12 -42 -1 -85 29 -120 32
-36 60 -49 107 -49 57 0 85 13 117 56 38 50 38 117 0 167 -32 42 -89 67 -131
60z"/>
<path d="M645 4656 c-56 -37 -126 -109 -148 -152 -19 -37 -15 -109 7 -154 10
-19 174 -190 366 -380 936 -928 1415 -1397 1446 -1415 l34 -20 26 30 c35 40
80 112 138 218 44 84 46 90 32 112 -31 48 -1752 1762 -1785 1778 -47 23 -59
22 -116 -17z"/>
<path d="M4557 3183 c-823 -824 -1506 -1510 -1517 -1525 l-21 -27 83 -87 c101
-105 213 -215 250 -244 l27 -21 1517 1514 c1012 1009 1515 1518 1513 1529 -5
22 -335 358 -352 358 -2 0 -677 -674 -1500 -1497z m-1159 -1539 c1 -18 2 -36
3 -40 1 -5 1 -19 0 -31 -1 -20 -5 -22 -42 -18 -23 3 -44 6 -46 9 -2 2 -5 25
-7 51 -3 51 6 60 62 60 26 1 29 -3 30 -31z"/>
<path d="M3332 1608 c2 -15 10 -23 23 -23 13 0 21 8 23 23 3 18 -1 22 -23 22
-22 0 -26 -4 -23 -22z"/>
<path d="M2745 2542 c-88 -93 -175 -208 -175 -231 0 -9 37 -55 83 -101 157
-160 402 -396 430 -415 l28 -18 50 49 c81 79 82 84 33 189 -154 335 -234 477
-306 547 -66 63 -65 63 -143 -20z"/>
<path d="M4390 2249 c-71 -56 -79 -76 -48 -131 13 -24 57 -87 96 -140 40 -53
72 -99 72 -103 0 -4 -36 -45 -80 -92 -116 -122 -187 -252 -205 -374 -14 -94
-6 -240 16 -304 34 -96 56 -139 104 -204 155 -210 399 -309 654 -265 80 14
188 53 233 85 14 10 29 19 32 19 8 0 68 53 118 105 169 175 221 467 124 704
-54 133 -170 263 -298 334 -132 73 -287 95 -467 66 -88 -14 -69 -32 -201 189
-50 83 -92 152 -95 152 -2 0 -26 -18 -55 -41z m624 -464 c161 -41 302 -176
358 -343 26 -78 25 -216 -2 -303 -44 -141 -166 -266 -312 -320 -100 -37 -187
-41 -296 -14 -337 82 -490 487 -293 776 68 99 204 186 331 212 74 15 128 13
214 -8z"/>
<path d="M3559 1421 c-49 -49 -51 -60 -17 -121 18 -30 53 -87 79 -125 98 -148
152 -279 180 -443 15 -86 28 -90 74 -22 37 56 44 142 20 246 -26 113 -151 333
-247 434 -56 59 -60 61 -89 31z"/>
</g>
</svg>
