<?xml version="1.0"?>
<svg xmlns="http://www.w3.org/2000/svg" height="512px" viewBox="0 0 495 496" width="512px"><path d="m272.5 320h16v16h-16zm0 0" fill="#ac9374"/><path d="m240.5 320h16v16h-16zm0 0" fill="#ac9374"/><path d="m208.5 320h16v16h-16zm0 0" fill="#ac9374"/><path d="m424.5 120c22.054688 0 40-17.945312 40-40s-17.945312-40-40-40-40 17.945312-40 40 17.945312 40 40 40zm0-64c13.230469 0 24 10.769531 24 24s-10.769531 24-24 24-24-10.769531-24-24 10.769531-24 24-24zm0 0" fill="#ac9374"/><path d="m424.5 216c-22.054688 0-40 17.945312-40 40s17.945312 40 40 40 40-17.945312 40-40-17.945312-40-40-40zm0 64c-13.230469 0-24-10.769531-24-24s10.769531-24 24-24 24 10.769531 24 24-10.769531 24-24 24zm0 0" fill="#ac9374"/><path d="m256.5 160h16v16h-16zm0 0" fill="#ac9374"/><path d="m424.5 184c-3.03125 0-6.023438.230469-8.984375.601562.585937-5.707031.984375-11.417968.984375-17.097656 0-5.40625-.359375-10.816406-.871094-16.199218 7.015625.886718 14.214844.855468 21.4375-.375 31.152344-5.304688 55.402344-31.042969 58.960938-62.578126 2.3125-20.519531-4.175782-41.039062-17.832032-56.3125-13.640624-15.277343-33.214843-24.039062-53.695312-24.039062-26.671875 0-49.960938 14.609375-62.40625 36.214844-30.960938-28.472656-70.699219-44.214844-113.097656-44.214844h-1c-80.976563 0-150.992188 59.289062-164.855469 138.550781l-59.335937 4.203125c-13.074219 1.046875-23.304688 12.132813-23.304688 25.246094s10.230469 24.199219 23.382812 25.257812l59.449219 4.207032c3.183594 17.488281 8.96875 34.296875 17.457031 49.941406l128.871094 237.394531c3.761719 6.902344 10.984375 11.199219 18.839844 11.199219s15.078125-4.296875 18.847656-11.214844l100.273438-184.714844c3.246094 4.175782 6.925781 8.066407 11.101562 11.503907 12.992188 10.714843 29.175782 16.402343 45.90625 16.402343 4.71875 0 9.488282-.457031 14.222656-1.375 28.167969-5.472656 50.777344-28.074218 56.242188-56.234374 4.183594-21.558594-1.289062-43.480469-15.027344-60.144532-13.734375-16.664062-33.992187-26.222656-55.566406-26.222656zm-24-16.496094c0 7.070313-.566406 14.199219-1.558594 21.257813-11.898437 4.527343-22.503906 12.117187-30.625 22.292969l-6.585937-3.648438c4.410156-12.636719 6.769531-25.847656 6.769531-39.40625s-2.359375-26.769531-6.769531-39.40625l6.59375-3.648438c8.175781 10.214844 18.855469 17.839844 30.785156 22.34375.878906 6.671876 1.390625 13.4375 1.390625 20.214844zm-104.3125-2.617187 51.359375-28.4375c3.234375 10.160156 4.953125 20.726562 4.953125 31.550781 0 10.832031-1.71875 21.390625-4.960938 31.550781l-51.359374-28.4375c.105468-1.042969.320312-2.050781.320312-3.113281s-.214844-2.070312-.3125-3.113281zm128.3125-140.886719c15.929688 0 31.160156 6.816406 41.777344 18.703125 10.765625 12.050781 15.6875 27.625 13.847656 43.855469-2.722656 24.113281-21.960938 44.546875-45.746094 48.601562-22.421875 3.800782-44.808594-5.984375-56.992187-24.976562l-4.054688-6.3125-82.6875 45.792968c-5.792969-8.238281-15.328125-13.664062-26.144531-13.664062-1.703125 0-3.351562.246094-4.984375.503906l31.183594-8.816406 77.800781-42.984375v-4.703125c0-30.878906 25.128906-56 56-56zm-144 144c0 8.824219-7.175781 16-16 16s-16-7.175781-16-16 7.175781-16 16-16 16 7.175781 16 16zm4.921875-55.441406-54.320313 15.519531-80.792968 5.722656c14.351562-41.585937 53.253906-69.800781 98.191406-69.800781 27.078125 0 52.769531 10.472656 72.0625 29.03125zm-37.417969-96.558594h1c40.238282 0 77.894532 15.601562 106.441406 43.832031-1.441406 4.9375-2.433593 10.0625-2.785156 15.367188l-17.695312 9.832031c-22.59375-23.542969-53.601563-37.03125-86.464844-37.03125-54.144531 0-100.664062 35.511719-115.304688 87.007812l-33.542968 2.375c14.128906-69.703124 76.449218-121.382812 148.351562-121.382812zm-223 142.703125 208.054688-14.71875 18.632812-5.265625c-8.886718 3.90625-15.574218 11.746094-18.054687 21.289062h-212.433594c1.152344-.6875 2.410156-1.191406 3.800781-1.304687zm-3.777344 17.296875h212.410157c2.457031 9.457031 9.0625 17.230469 17.839843 21.167969l-16.777343-4.855469-209.613281-15.007812c-1.417969-.113282-2.691407-.625-3.859376-1.304688zm264.195313 47.441406 35.140625 19.519532c-19.292969 18.558593-44.984375 29.039062-72.0625 29.039062-44.9375 0-83.839844-28.214844-98.191406-69.792969l80.792968 5.722657zm-32.121094 253.703125c-1.921875 3.527344-7.679687 3.519531-9.585937.007813l-128.863282-237.375c-7.023437-12.945313-11.96875-26.777344-14.984374-41.144532l33.335937 2.359376c14.632813 51.496093 61.152344 87.007812 115.296875 87.007812 32.863281 0 63.871094-13.488281 86.464844-37.039062l17.695312 9.832031c.527344 8.054687 2.464844 15.832031 5.527344 23.117187zm226.09375-209.824219c-4.238281 21.824219-21.757812 39.335938-43.582031 43.582032-16.832031 3.273437-33.945312-.972656-46.90625-11.664063-12.964844-10.695312-20.40625-26.453125-20.40625-43.238281v-4.703125l-76.121094-42.289063-32.855468-9.511718c1.640624.257812 3.273437.503906 4.976562.503906 10.816406 0 20.351562-5.425781 26.152344-13.664062l82.6875 45.792968 4.054687-6.3125c10.371094-16.160156 27.976563-25.816406 47.105469-25.816406 16.792969 0 32.542969 7.441406 43.230469 20.398438 10.691406 12.960937 14.9375 30.066406 11.664062 46.921874zm0 0" fill="#ac9374"/></svg>
