<svg xmlns="http://www.w3.org/2000/svg" xmlns:xlink="http://www.w3.org/1999/xlink" version="1.1" id="Capa_1" x="0px" y="0px" viewBox="0 0 496 496" style="enable-background:new 0 0 496 496;" xml:space="preserve">
<g>
	<rect x="360" y="200" style="fill:#60412b;" width="48" height="160"/>
	<rect x="88" y="200" style="fill:#60412b;" width="48" height="160"/>
</g>
<path xmlns="http://www.w3.org/2000/svg" fill="#ac9374" d="M416,168C416,75.368,340.632,0,248,0S80,75.368,80,168v296h17.76l7.992,32h284.496l7.992-32H416V168z M248,16  c83.816,0,152,68.184,152,152v56h-32v-56c0-66.168-53.832-120-120-120s-120,53.832-120,120v56H96v-56C96,84.184,164.184,16,248,16z   M336,448v-16h-16v16H176v-16h-16v16h-16V320h16v96h16v-64h64v33.472c-9.288,3.312-16,12.112-16,22.528c0,13.232,10.768,24,24,24  s24-10.768,24-24c0-10.416-6.712-19.216-16-22.528V352h64v64h16v-96h16v128H336z M169.112,100.424l11.008,11.008l11.312-11.312  l-11.008-11.008c16.288-13.976,36.92-22.968,59.576-24.704V80h16V64.408c22.664,1.736,43.288,10.728,59.576,24.704l-11.008,11.008  l11.312,11.312l11.008-11.008c13.976,16.288,22.968,36.92,24.704,59.576H336v16h15.592c-1.736,22.664-10.728,43.288-24.704,59.576  l-11.008-11.008l-11.312,11.312l11.008,11.008c-16.288,13.976-36.92,22.968-59.576,24.704V256h-16v15.592  c-22.664-1.736-43.288-10.728-59.576-24.704l11.008-11.008l-11.312-11.312l-11.008,11.008  c-13.976-16.288-22.968-36.92-24.704-59.576H160v-16h-15.592C146.144,137.336,155.136,116.712,169.112,100.424z M248,288  c44.464,0,83.272-24.36,104-60.384V304H144v-76.384C164.728,263.64,203.536,288,248,288z M320,336H176v-16h144V336z M256,408  c0,4.416-3.584,8-8,8s-8-3.584-8-8s3.584-8,8-8C252.416,400,256,403.584,256,408z M128,256H96v-16h32V256z M128,272v16H96v-16H128z   M128,304v16H96v-16H128z M368,304h32v16h-32V304z M368,288v-16h32v16H368z M368,256v-16h32v16H368z M96,336h32v112H96V336z   M377.752,480H118.248l-4.008-16h267.512L377.752,480z M368,448V336h32v112H368z"/>
<path d="M224,168c0,13.232,10.768,24,24,24s24-10.768,24-24c0-3.696-0.904-7.152-2.408-10.28l32.064-32.064l-11.312-11.312  l-32.064,32.064C255.152,144.904,251.696,144,248,144s-7.152,0.904-10.28,2.408l-24.064-24.064l-11.312,11.312l24.064,24.064  C224.904,160.848,224,164.304,224,168z M256,168c0,4.416-3.584,8-8,8s-8-3.584-8-8s3.584-8,8-8C252.416,160,256,163.584,256,168z" fill="#ac9374"/>
<g>
</g>
<g>
</g>
<g>
</g>
<g>
</g>
<g>
</g>
<g>
</g>
<g>
</g>
<g>
</g>
<g>
</g>
<g>
</g>
<g>
</g>
<g>
</g>
<g>
</g>
<g>
</g>
<g>
</g>
<div xmlns="" id="saka-gui-root"><div/></div></svg>